TITLE "Fuzzy Warbles 7"
PERFORMER "Andy Partridge"
REM GENRE "Pop"
REM DATE "2006"
REM DISCID 040E3C13
FILE "Fuzzy Warbles 7.flac" WAVE
  TRACK 01 AUDIO
    TITLE "Rainbeau Melt"
    ISRC GBFHR0600166
    INDEX 01 00:00:00
  TRACK 02 AUDIO
    TITLE "Thrill Pill"
    ISRC GBFHR0600167
    INDEX 01 03:36:68
  TRACK 03 AUDIO
    TITLE "Sonic Boom"
    ISRC GBFHR0600168
    INDEX 00 04:23:35
    INDEX 01 04:23:47
  TRACK 04 AUDIO
    TITLE "I'm Unbecome"
    ISRC GBFHR0600169
    INDEX 00 07:12:08
    INDEX 01 07:14:16
  TRACK 05 AUDIO
    TITLE "Ballet For A Rainy Day"
    ISRC GBFHR0600170
    INDEX 01 11:18:27
  TRACK 06 AUDIO
    TITLE "1000 Umbrellas"
    ISRC GBFHR0600171
    INDEX 00 14:31:07
    INDEX 01 14:31:24
  TRACK 07 AUDIO
    TITLE "Ejac In A Box (MGOO)"
    ISRC GBFHR0600172
    INDEX 00 16:09:69
    INDEX 01 16:10:57
  TRACK 08 AUDIO
    TITLE "C Side"
    ISRC GBFHR0600173
    INDEX 00 19:18:44
    INDEX 01 19:18:63
  TRACK 09 AUDIO
    TITLE "Seagull Sreaming Kiss Her Kiss Her"
    ISRC GBFHR0600174
    INDEX 01 19:39:15
  TRACK 10 AUDIO
    TITLE "Ladybird"
    ISRC GBFHR0600175
    INDEX 01 23:17:15
  TRACK 11 AUDIO
    TITLE "Candymine"
    ISRC GBFHR0600176
    INDEX 00 28:31:61
    INDEX 01 28:32:21
  TRACK 12 AUDIO
    TITLE "Visit To The Doctor"
    ISRC GBFHR0600177
    INDEX 01 30:56:63
  TRACK 13 AUDIO
    TITLE "Cherry In YOur Tree"
    ISRC GBFHR0600178
    INDEX 01 34:25:63
  TRACK 14 AUDIO
    TITLE "Desert Island"
    ISRC GBFHR0600179
    INDEX 01 37:19:50
  TRACK 15 AUDIO
    TITLE "Scarecrow People"
    ISRC GBFHR0600180
    INDEX 01 42:34:00
  TRACK 16 AUDIO
    TITLE "Hold Me My Daddy"
    ISRC GBFHR0600181
    INDEX 01 46:51:70
  TRACK 17 AUDIO
    TITLE "Books Are Burning"
    ISRC GBFHR0600182
    INDEX 01 51:05:50
  TRACK 18 AUDIO
    TITLE "Bobba De Boop De Ba De Boobay"
    ISRC GBFHR0600183
    INDEX 01 55:28:54
  TRACK 19 AUDIO
    TITLE "Open A Can Of Human Beans"
    ISRC GBFHR0600184
    INDEX 01 55:59:62
